<?xml version="1.0" encoding="utf-8"?>
<svg version="1.1" xmlns:xlink="http://www.w3.org/1999/xlink" width="12px" height="12px" viewBox="126 804  12 12" xmlns="http://www.w3.org/2000/svg">
  <path d="M 132 804  C 135.36 804  138 806.64  138 810  C 138 813.36  135.36 816  132 816  C 128.64 816  126 813.36  126 810  C 126 806.64  128.64 804  132 804  Z " fill-rule="nonzero" fill="#ffffff" stroke="none" />
  <path d="M 132 804.5  C 135.08 804.5  137.5 806.92  137.5 810  C 137.5 813.08  135.08 815.5  132 815.5  C 128.92 815.5  126.5 813.08  126.5 810  C 126.5 806.92  128.92 804.5  132 804.5  Z " stroke-width="1" stroke="#797979" fill="none" />
  <path d="M 132 813  C 130.32 813  129 811.68  129 810  C 129 808.32  130.32 807  132 807  C 133.68 807  135 808.32  135 810  C 135 811.68  133.68 813  132 813  " fill-rule="nonzero" fill="#797979" stroke="none" />
</svg>