<?xml version="1.0" encoding="utf-8"?>
<svg version="1.1" xmlns:xlink="http://www.w3.org/1999/xlink" width="12px" height="12px" viewBox="804 249  12 12" xmlns="http://www.w3.org/2000/svg">
  <path d="M 810 249  C 813.36 249  816 251.64  816 255  C 816 258.36  813.36 261  810 261  C 806.64 261  804 258.36  804 255  C 804 251.64  806.64 249  810 249  Z " fill-rule="nonzero" fill="#ffffff" stroke="none" />
  <path d="M 810 249.5  C 813.08 249.5  815.5 251.92  815.5 255  C 815.5 258.08  813.08 260.5  810 260.5  C 806.92 260.5  804.5 258.08  804.5 255  C 804.5 251.92  806.92 249.5  810 249.5  Z " stroke-width="1" stroke="#797979" fill="none" />
  <path d="M 810 258  C 808.32 258  807 256.68  807 255  C 807 253.32  808.32 252  810 252  C 811.68 252  813 253.32  813 255  C 813 256.68  811.68 258  810 258  " fill-rule="nonzero" fill="#797979" stroke="none" />
</svg>