<?xml version="1.0" encoding="utf-8"?>
<svg version="1.1" xmlns:xlink="http://www.w3.org/1999/xlink" width="35px" height="38px" xmlns="http://www.w3.org/2000/svg">
  <g transform="matrix(1 0 0 1 -1674 -31 )">
    <path d="M 24.3780048076923 28.8286830357143  C 24.9669471153846 28.1430431547619  25.2614182692308 27.2842261904762  25.2614182692308 26.2522321428571  C 25.2614182692308 25.4464285714286  25.2228565705128 24.6901041666667  25.1457331730769 23.9832589285714  C 25.068609775641 23.2764136904762  24.921374198718 22.5660342261905  24.7040264423077 21.8521205357143  C 24.4866786858974 21.1382068452381  24.2097355769231 20.5303199404762  23.8731971153846 20.0284598214286  C 23.5366586538462 19.5265997023809  23.0879407051282 19.1166294642857  22.5270432692308 18.7985491071429  C 21.9661458333333 18.48046875  21.328125 18.3214285714286  20.6129807692308 18.3214285714286  C 20.5288461538462 18.3779761904762  20.2939703525641 18.5228794642857  19.9083533653846 18.7561383928571  C 19.5227363782051 18.9893973214286  19.2247596153846 19.1625744047619  19.0144230769231 19.2756696428571  C 18.8040865384615 19.3887648809524  18.5201322115385 19.5301339285714  18.1625600961538 19.6997767857143  C 17.8049879807692 19.8694196428571  17.4614383012821 19.9895833333333  17.1319110576923 20.0602678571429  C 16.8023838141026 20.1309523809524  16.4763621794872 20.1662946428571  16.1538461538462 20.1662946428571  C 15.8313301282051 20.1662946428571  15.5053084935897 20.1309523809524  15.17578125 20.0602678571429  C 14.8462540064103 19.9895833333333  14.5027043269231 19.8694196428571  14.1451322115385 19.6997767857143  C 13.7875600961538 19.5301339285714  13.5036057692308 19.3887648809524  13.2932692307692 19.2756696428571  C 13.0829326923077 19.1625744047619  12.7849559294872 18.9893973214286  12.3993389423077 18.7561383928571  C 12.0137219551282 18.5228794642857  11.7788461538462 18.3779761904762  11.6947115384615 18.3214285714286  C 10.9795673076923 18.3214285714286  10.341546474359 18.48046875  9.78064903846154 18.7985491071429  C 9.2197516025641 19.1166294642857  8.77103365384616 19.5265997023809  8.43449519230769 20.0284598214286  C 8.09795673076923 20.5303199404762  7.82101362179487 21.1382068452381  7.60366586538462 21.8521205357143  C 7.38631810897436 22.5660342261905  7.23908253205128 23.2764136904762  7.16195913461539 23.9832589285714  C 7.08483573717949 24.6901041666667  7.04627403846154 25.4464285714286  7.04627403846154 26.2522321428571  C 7.04627403846154 27.2842261904762  7.34074519230769 28.1430431547619  7.9296875 28.8286830357143  C 8.51862980769231 29.5143229166667  9.24078525641026 29.8571428571429  10.0961538461538 29.8571428571429  L 22.2115384615385 29.8571428571429  C 23.0669070512821 29.8571428571429  23.7890625 29.5143229166667  24.3780048076923 28.8286830357143  Z M 20.0135216346154 17.5368303571429  C 21.0862379807692 16.4624255952381  21.6225961538462 15.1688988095238  21.6225961538462 13.65625  C 21.6225961538462 12.1294642857143  21.0862379807692 10.828869047619  20.0135216346154 9.75446428571429  C 18.9408052884615 8.68005952380952  17.6542467948718 8.14285714285714  16.1538461538462 8.14285714285714  C 14.6534455128205 8.14285714285714  13.3668870192308 8.68005952380952  12.2941706730769 9.75446428571429  C 11.2214543269231 10.828869047619  10.6850961538462 12.1294642857143  10.6850961538462 13.65625  C 10.6850961538462 15.1688988095238  11.2214543269231 16.4624255952381  12.2941706730769 17.5368303571429  C 13.3668870192308 18.6112351190476  14.6534455128205 19.1484375  16.1538461538462 19.1484375  C 17.6542467948718 19.1484375  18.9408052884615 18.6112351190476  20.0135216346154 17.5368303571429  Z M 34.8106971153846 24.6194196428571  C 34.9368990384615 24.7466517857143  35 24.9092261904762  35 25.1071428571429  L 35 29.1785714285714  C 35 29.3764880952381  34.9368990384615 29.5390625  34.8106971153846 29.6662946428571  C 34.6844951923077 29.7935267857143  34.5232371794872 29.8571428571429  34.3269230769231 29.8571428571429  L 32.3076923076923 29.8571428571429  L 32.3076923076923 34.6071428571429  C 32.3076923076923 35.5401785714286  31.9781650641026 36.3389136904762  31.3191105769231 37.0033482142857  C 30.6600560897436 37.6677827380952  29.8677884615385 38  28.9423076923077 38  L 3.36538461538462 38  C 2.43990384615385 38  1.64763621794872 37.6677827380952  0.988581730769231 37.0033482142857  C 0.329527243589744 36.3389136904762  0 35.5401785714286  0 34.6071428571429  L 0 3.39285714285714  C 0 2.45982142857143  0.329527243589744 1.66108630952381  0.988581730769231 0.996651785714287  C 1.64763621794872 0.332217261904762  2.43990384615385 0  3.36538461538462 0  L 28.9423076923077 0  C 29.8677884615385 0  30.6600560897436 0.332217261904762  31.3191105769231 0.996651785714287  C 31.9781650641026 1.66108630952381  32.3076923076923 2.45982142857143  32.3076923076923 3.39285714285714  L 32.3076923076923 8.14285714285714  L 34.3269230769231 8.14285714285714  C 34.5232371794872 8.14285714285714  34.6844951923077 8.20647321428571  34.8106971153846 8.33370535714286  C 34.9368990384615 8.4609375  35 8.6235119047619  35 8.82142857142857  L 35 12.8928571428571  C 35 13.0907738095238  34.9368990384615 13.2533482142857  34.8106971153846 13.3805803571429  C 34.6844951923077 13.5078125  34.5232371794872 13.5714285714286  34.3269230769231 13.5714285714286  L 32.3076923076923 13.5714285714286  L 32.3076923076923 16.2857142857143  L 34.3269230769231 16.2857142857143  C 34.5232371794872 16.2857142857143  34.6844951923077 16.3493303571429  34.8106971153846 16.4765625  C 34.9368990384615 16.6037946428571  35 16.766369047619  35 16.9642857142857  L 35 21.0357142857143  C 35 21.2336309523809  34.9368990384615 21.3962053571429  34.8106971153846 21.5234375  C 34.6844951923077 21.6506696428571  34.5232371794872 21.7142857142857  34.3269230769231 21.7142857142857  L 32.3076923076923 21.7142857142857  L 32.3076923076923 24.4285714285714  L 34.3269230769231 24.4285714285714  C 34.5232371794872 24.4285714285714  34.6844951923077 24.4921875  34.8106971153846 24.6194196428571  Z " fill-rule="nonzero" fill="#000000" stroke="none" transform="matrix(1 0 0 1 1674 31 )" />
  </g>
</svg>