<?xml version="1.0" encoding="utf-8"?>
<svg version="1.1" xmlns:xlink="http://www.w3.org/1999/xlink" width="12px" height="12px" viewBox="247 336.5  12 12" xmlns="http://www.w3.org/2000/svg">
  <path d="M 253 336.5  C 256.36 336.5  259 339.14  259 342.5  C 259 345.86  256.36 348.5  253 348.5  C 249.64 348.5  247 345.86  247 342.5  C 247 339.14  249.64 336.5  253 336.5  Z " fill-rule="nonzero" fill="#ffffff" stroke="none" />
  <path d="M 253 337  C 256.08 337  258.5 339.42  258.5 342.5  C 258.5 345.58  256.08 348  253 348  C 249.92 348  247.5 345.58  247.5 342.5  C 247.5 339.42  249.92 337  253 337  Z " stroke-width="1" stroke="#797979" fill="none" />
  <path d="M 253 345.5  C 251.32 345.5  250 344.18  250 342.5  C 250 340.82  251.32 339.5  253 339.5  C 254.68 339.5  256 340.82  256 342.5  C 256 344.18  254.68 345.5  253 345.5  " fill-rule="nonzero" fill="#797979" stroke="none" />
</svg>