<?xml version="1.0" encoding="utf-8"?>
<svg version="1.1" xmlns:xlink="http://www.w3.org/1999/xlink" width="12px" height="12px" viewBox="297 336.5  12 12" xmlns="http://www.w3.org/2000/svg">
  <path d="M 303 336.5  C 306.36 336.5  309 339.14  309 342.5  C 309 345.86  306.36 348.5  303 348.5  C 299.64 348.5  297 345.86  297 342.5  C 297 339.14  299.64 336.5  303 336.5  Z " fill-rule="nonzero" fill="#ffffff" stroke="none" />
  <path d="M 303 337  C 306.08 337  308.5 339.42  308.5 342.5  C 308.5 345.58  306.08 348  303 348  C 299.92 348  297.5 345.58  297.5 342.5  C 297.5 339.42  299.92 337  303 337  Z " stroke-width="1" stroke="#797979" fill="none" />
  <path d="M 303 345.5  C 301.32 345.5  300 344.18  300 342.5  C 300 340.82  301.32 339.5  303 339.5  C 304.68 339.5  306 340.82  306 342.5  C 306 344.18  304.68 345.5  303 345.5  " fill-rule="nonzero" fill="#797979" stroke="none" />
</svg>