<?xml version="1.0" encoding="utf-8"?>
<svg version="1.1" xmlns:xlink="http://www.w3.org/1999/xlink" width="12px" height="12px" viewBox="247 412.5  12 12" xmlns="http://www.w3.org/2000/svg">
  <path d="M 253 412.5  C 256.36 412.5  259 415.14  259 418.5  C 259 421.86  256.36 424.5  253 424.5  C 249.64 424.5  247 421.86  247 418.5  C 247 415.14  249.64 412.5  253 412.5  Z " fill-rule="nonzero" fill="#ffffff" stroke="none" />
  <path d="M 253 413  C 256.08 413  258.5 415.42  258.5 418.5  C 258.5 421.58  256.08 424  253 424  C 249.92 424  247.5 421.58  247.5 418.5  C 247.5 415.42  249.92 413  253 413  Z " stroke-width="1" stroke="#797979" fill="none" />
  <path d="M 253 421.5  C 251.32 421.5  250 420.18  250 418.5  C 250 416.82  251.32 415.5  253 415.5  C 254.68 415.5  256 416.82  256 418.5  C 256 420.18  254.68 421.5  253 421.5  " fill-rule="nonzero" fill="#797979" stroke="none" />
</svg>