<?xml version="1.0" encoding="utf-8"?>
<svg version="1.1" xmlns:xlink="http://www.w3.org/1999/xlink" width="12px" height="12px" viewBox="297 449.5  12 12" xmlns="http://www.w3.org/2000/svg">
  <path d="M 303 449.5  C 306.36 449.5  309 452.14  309 455.5  C 309 458.86  306.36 461.5  303 461.5  C 299.64 461.5  297 458.86  297 455.5  C 297 452.14  299.64 449.5  303 449.5  Z " fill-rule="nonzero" fill="#ffffff" stroke="none" />
  <path d="M 303 450  C 306.08 450  308.5 452.42  308.5 455.5  C 308.5 458.58  306.08 461  303 461  C 299.92 461  297.5 458.58  297.5 455.5  C 297.5 452.42  299.92 450  303 450  Z " stroke-width="1" stroke="#797979" fill="none" />
  <path d="M 303 458.5  C 301.32 458.5  300 457.18  300 455.5  C 300 453.82  301.32 452.5  303 452.5  C 304.68 452.5  306 453.82  306 455.5  C 306 457.18  304.68 458.5  303 458.5  " fill-rule="nonzero" fill="#797979" stroke="none" />
</svg>