<?xml version="1.0" encoding="utf-8"?>
<svg version="1.1" xmlns:xlink="http://www.w3.org/1999/xlink" width="12px" height="12px" viewBox="247 487.5  12 12" xmlns="http://www.w3.org/2000/svg">
  <path d="M 253 487.5  C 256.36 487.5  259 490.14  259 493.5  C 259 496.86  256.36 499.5  253 499.5  C 249.64 499.5  247 496.86  247 493.5  C 247 490.14  249.64 487.5  253 487.5  Z " fill-rule="nonzero" fill="#ffffff" stroke="none" />
  <path d="M 253 488  C 256.08 488  258.5 490.42  258.5 493.5  C 258.5 496.58  256.08 499  253 499  C 249.92 499  247.5 496.58  247.5 493.5  C 247.5 490.42  249.92 488  253 488  Z " stroke-width="1" stroke="#797979" fill="none" />
  <path d="M 253 496.5  C 251.32 496.5  250 495.18  250 493.5  C 250 491.82  251.32 490.5  253 490.5  C 254.68 490.5  256 491.82  256 493.5  C 256 495.18  254.68 496.5  253 496.5  " fill-rule="nonzero" fill="#797979" stroke="none" />
</svg>