<?xml version="1.0" encoding="utf-8"?>
<svg version="1.1" xmlns:xlink="http://www.w3.org/1999/xlink" width="195px" height="102px" xmlns="http://www.w3.org/2000/svg">
  <g transform="matrix(1 0 0 1 -122 -1160 )">
    <path d="M 122 1160  L 317 1160  L 317 1262  L 122 1262  L 122 1160  " fill-rule="nonzero" fill="#cccccc" stroke="none" />
    <path d="M 129 1167  L 310 1167  L 310 1255  L 129 1255  L 129 1167  " fill-rule="nonzero" fill="#ffffff" stroke="none" />
    <path d="M 231.05 1190.6  C 226.766 1190.6  223.4 1187.234  223.4 1182.95  C 223.4 1178.666  226.766 1175.3  231.05 1175.3  C 235.334 1175.3  238.7 1178.666  238.7 1182.95  C 238.7 1187.234  235.334 1190.6  231.05 1190.6  " fill-rule="nonzero" fill="#cccccc" stroke="none" />
    <path d="M 132 1253  L 132 1207.35  L 176 1186.6  L 237.6 1226.95076923077  L 272.8 1199.05  L 308 1226.95076923077  L 308 1253  L 132 1253  " fill-rule="nonzero" fill="#169bd5" stroke="none" />
  </g>
</svg>