<?xml version="1.0" encoding="utf-8"?>
<svg version="1.1" xmlns:xlink="http://www.w3.org/1999/xlink" width="90px" height="69px" xmlns="http://www.w3.org/2000/svg">
  <g transform="matrix(1 0 0 1 -122 -953 )">
    <path d="M 122 953  L 212 953  L 212 1022  L 122 1022  L 122 953  " fill-rule="nonzero" fill="#cccccc" stroke="none" />
    <path d="M 127 958  L 207 958  L 207 1017  L 127 1017  L 127 958  " fill-rule="nonzero" fill="#ffffff" stroke="none" />
    <path d="M 173.975 973.7  C 171.077 973.7  168.8 971.423  168.8 968.525  C 168.8 965.627  171.077 963.35  173.975 963.35  C 176.873 963.35  179.15 965.627  179.15 968.525  C 179.15 971.423  176.873 973.7  173.975 973.7  " fill-rule="nonzero" fill="#cccccc" stroke="none" />
    <path d="M 129 1016  L 129 985.2  L 148.25 971.2  L 175.2 990.24  L 190.6 979.6  L 206 990.24  L 206 1016  L 129 1016  " fill-rule="nonzero" fill="#169bd5" stroke="none" />
  </g>
</svg>