<?xml version="1.0" encoding="utf-8"?>
<svg version="1.1" xmlns:xlink="http://www.w3.org/1999/xlink" width="12px" height="12px" viewBox="609 336  12 12" xmlns="http://www.w3.org/2000/svg">
  <path d="M 615 336  C 618.36 336  621 338.64  621 342  C 621 345.36  618.36 348  615 348  C 611.64 348  609 345.36  609 342  C 609 338.64  611.64 336  615 336  Z " fill-rule="nonzero" fill="#ffffff" stroke="none" />
  <path d="M 615 336.5  C 618.08 336.5  620.5 338.92  620.5 342  C 620.5 345.08  618.08 347.5  615 347.5  C 611.92 347.5  609.5 345.08  609.5 342  C 609.5 338.92  611.92 336.5  615 336.5  Z " stroke-width="1" stroke="#797979" fill="none" />
  <path d="M 615 345  C 613.32 345  612 343.68  612 342  C 612 340.32  613.32 339  615 339  C 616.68 339  618 340.32  618 342  C 618 343.68  616.68 345  615 345  " fill-rule="nonzero" fill="#797979" stroke="none" />
</svg>