<?xml version="1.0" encoding="utf-8"?>
<svg version="1.1" xmlns:xlink="http://www.w3.org/1999/xlink" width="12px" height="12px" viewBox="849 336  12 12" xmlns="http://www.w3.org/2000/svg">
  <path d="M 855 336  C 858.36 336  861 338.64  861 342  C 861 345.36  858.36 348  855 348  C 851.64 348  849 345.36  849 342  C 849 338.64  851.64 336  855 336  Z " fill-rule="nonzero" fill="#ffffff" stroke="none" />
  <path d="M 855 336.5  C 858.08 336.5  860.5 338.92  860.5 342  C 860.5 345.08  858.08 347.5  855 347.5  C 851.92 347.5  849.5 345.08  849.5 342  C 849.5 338.92  851.92 336.5  855 336.5  Z " stroke-width="1" stroke="#797979" fill="none" />
  <path d="M 855 345  C 853.32 345  852 343.68  852 342  C 852 340.32  853.32 339  855 339  C 856.68 339  858 340.32  858 342  C 858 343.68  856.68 345  855 345  " fill-rule="nonzero" fill="#797979" stroke="none" />
</svg>