<?xml version="1.0" encoding="utf-8"?>
<svg version="1.1" xmlns:xlink="http://www.w3.org/1999/xlink" width="95px" height="90px" xmlns="http://www.w3.org/2000/svg">
  <g transform="matrix(1 0 0 1 -630 -322 )">
    <path d="M 630 322  L 725 322  L 725 412  L 630 412  L 630 322  " fill-rule="nonzero" fill="#cccccc" stroke="none" />
    <path d="M 636 328  L 719 328  L 719 406  L 636 406  L 636 328  " fill-rule="nonzero" fill="#ffffff" stroke="none" />
    <path d="M 686.15 349  C 682.37 349  679.4 346.03  679.4 342.25  C 679.4 338.47  682.37 335.5  686.15 335.5  C 689.93 335.5  692.9 338.47  692.9 342.25  C 692.9 346.03  689.93 349  686.15 349  " fill-rule="nonzero" fill="#cccccc" stroke="none" />
    <path d="M 639 404  L 639 363.85  L 658.5 345.6  L 685.8 362.505263157895  L 701.4 356.55  L 717 362.505263157895  L 717 404  L 639 404  " fill-rule="nonzero" fill="#169bd5" stroke="none" />
  </g>
</svg>