<?xml version="1.0" encoding="utf-8"?>
<svg version="1.1" xmlns:xlink="http://www.w3.org/1999/xlink" width="12px" height="12px" viewBox="485 336  12 12" xmlns="http://www.w3.org/2000/svg">
  <path d="M 491 336  C 494.36 336  497 338.64  497 342  C 497 345.36  494.36 348  491 348  C 487.64 348  485 345.36  485 342  C 485 338.64  487.64 336  491 336  Z " fill-rule="nonzero" fill="#ffffff" stroke="none" />
  <path d="M 491 336.5  C 494.08 336.5  496.5 338.92  496.5 342  C 496.5 345.08  494.08 347.5  491 347.5  C 487.92 347.5  485.5 345.08  485.5 342  C 485.5 338.92  487.92 336.5  491 336.5  Z " stroke-width="1" stroke="#797979" fill="none" />
  <path d="M 491 345  C 489.32 345  488 343.68  488 342  C 488 340.32  489.32 339  491 339  C 492.68 339  494 340.32  494 342  C 494 343.68  492.68 345  491 345  " fill-rule="nonzero" fill="#797979" stroke="none" />
</svg>