<?xml version="1.0" encoding="utf-8"?>
<svg version="1.1" xmlns:xlink="http://www.w3.org/1999/xlink" width="12px" height="12px" viewBox="297 374.5  12 12" xmlns="http://www.w3.org/2000/svg">
  <path d="M 303 374.5  C 306.36 374.5  309 377.14  309 380.5  C 309 383.86  306.36 386.5  303 386.5  C 299.64 386.5  297 383.86  297 380.5  C 297 377.14  299.64 374.5  303 374.5  Z " fill-rule="nonzero" fill="#ffffff" stroke="none" />
  <path d="M 303 375  C 306.08 375  308.5 377.42  308.5 380.5  C 308.5 383.58  306.08 386  303 386  C 299.92 386  297.5 383.58  297.5 380.5  C 297.5 377.42  299.92 375  303 375  Z " stroke-width="1" stroke="#797979" fill="none" />
  <path d="M 303 383.5  C 301.32 383.5  300 382.18  300 380.5  C 300 378.82  301.32 377.5  303 377.5  C 304.68 377.5  306 378.82  306 380.5  C 306 382.18  304.68 383.5  303 383.5  " fill-rule="nonzero" fill="#797979" stroke="none" />
</svg>