<?xml version="1.0" encoding="utf-8"?>
<svg version="1.1" xmlns:xlink="http://www.w3.org/1999/xlink" width="12px" height="12px" viewBox="409 602  12 12" xmlns="http://www.w3.org/2000/svg">
  <path d="M 415 602  C 418.36 602  421 604.64  421 608  C 421 611.36  418.36 614  415 614  C 411.64 614  409 611.36  409 608  C 409 604.64  411.64 602  415 602  Z " fill-rule="nonzero" fill="#ffffff" stroke="none" />
  <path d="M 415 602.5  C 418.08 602.5  420.5 604.92  420.5 608  C 420.5 611.08  418.08 613.5  415 613.5  C 411.92 613.5  409.5 611.08  409.5 608  C 409.5 604.92  411.92 602.5  415 602.5  Z " stroke-width="1" stroke="#797979" fill="none" />
  <path d="M 415 611  C 413.32 611  412 609.68  412 608  C 412 606.32  413.32 605  415 605  C 416.68 605  418 606.32  418 608  C 418 609.68  416.68 611  415 611  " fill-rule="nonzero" fill="#797979" stroke="none" />
</svg>