<?xml version="1.0" encoding="utf-8"?>
<svg version="1.1" xmlns:xlink="http://www.w3.org/1999/xlink" width="12px" height="12px" viewBox="715 254  12 12" xmlns="http://www.w3.org/2000/svg">
  <path d="M 721 254  C 724.36 254  727 256.64  727 260  C 727 263.36  724.36 266  721 266  C 717.64 266  715 263.36  715 260  C 715 256.64  717.64 254  721 254  Z " fill-rule="nonzero" fill="#ffffff" stroke="none" />
  <path d="M 721 254.5  C 724.08 254.5  726.5 256.92  726.5 260  C 726.5 263.08  724.08 265.5  721 265.5  C 717.92 265.5  715.5 263.08  715.5 260  C 715.5 256.92  717.92 254.5  721 254.5  Z " stroke-width="1" stroke="#797979" fill="none" />
  <path d="M 721 263  C 719.32 263  718 261.68  718 260  C 718 258.32  719.32 257  721 257  C 722.68 257  724 258.32  724 260  C 724 261.68  722.68 263  721 263  " fill-rule="nonzero" fill="#797979" stroke="none" />
</svg>