<?xml version="1.0" encoding="utf-8"?>
<svg version="1.1" xmlns:xlink="http://www.w3.org/1999/xlink" width="12px" height="12px" viewBox="786 254  12 12" xmlns="http://www.w3.org/2000/svg">
  <path d="M 792 254  C 795.36 254  798 256.64  798 260  C 798 263.36  795.36 266  792 266  C 788.64 266  786 263.36  786 260  C 786 256.64  788.64 254  792 254  Z " fill-rule="nonzero" fill="#ffffff" stroke="none" />
  <path d="M 792 254.5  C 795.08 254.5  797.5 256.92  797.5 260  C 797.5 263.08  795.08 265.5  792 265.5  C 788.92 265.5  786.5 263.08  786.5 260  C 786.5 256.92  788.92 254.5  792 254.5  Z " stroke-width="1" stroke="#797979" fill="none" />
  <path d="M 792 263  C 790.32 263  789 261.68  789 260  C 789 258.32  790.32 257  792 257  C 793.68 257  795 258.32  795 260  C 795 261.68  793.68 263  792 263  " fill-rule="nonzero" fill="#797979" stroke="none" />
</svg>