<?xml version="1.0" encoding="utf-8"?>
<svg version="1.1" xmlns:xlink="http://www.w3.org/1999/xlink" width="12px" height="12px" viewBox="755 378  12 12" xmlns="http://www.w3.org/2000/svg">
  <path d="M 761 378  C 764.36 378  767 380.64  767 384  C 767 387.36  764.36 390  761 390  C 757.64 390  755 387.36  755 384  C 755 380.64  757.64 378  761 378  Z " fill-rule="nonzero" fill="#ffffff" stroke="none" />
  <path d="M 761 378.5  C 764.08 378.5  766.5 380.92  766.5 384  C 766.5 387.08  764.08 389.5  761 389.5  C 757.92 389.5  755.5 387.08  755.5 384  C 755.5 380.92  757.92 378.5  761 378.5  Z " stroke-width="1" stroke="#797979" fill="none" />
  <path d="M 761 387  C 759.32 387  758 385.68  758 384  C 758 382.32  759.32 381  761 381  C 762.68 381  764 382.32  764 384  C 764 385.68  762.68 387  761 387  " fill-rule="nonzero" fill="#797979" stroke="none" />
</svg>