<?xml version="1.0" encoding="utf-8"?>
<svg version="1.1" xmlns:xlink="http://www.w3.org/1999/xlink" width="12px" height="12px" viewBox="755 416  12 12" xmlns="http://www.w3.org/2000/svg">
  <path d="M 761 416  C 764.36 416  767 418.64  767 422  C 767 425.36  764.36 428  761 428  C 757.64 428  755 425.36  755 422  C 755 418.64  757.64 416  761 416  Z " fill-rule="nonzero" fill="#ffffff" stroke="none" />
  <path d="M 761 416.5  C 764.08 416.5  766.5 418.92  766.5 422  C 766.5 425.08  764.08 427.5  761 427.5  C 757.92 427.5  755.5 425.08  755.5 422  C 755.5 418.92  757.92 416.5  761 416.5  Z " stroke-width="1" stroke="#797979" fill="none" />
  <path d="M 761 425  C 759.32 425  758 423.68  758 422  C 758 420.32  759.32 419  761 419  C 762.68 419  764 420.32  764 422  C 764 423.68  762.68 425  761 425  " fill-rule="nonzero" fill="#797979" stroke="none" />
</svg>