<?xml version="1.0" encoding="utf-8"?>
<svg version="1.1" xmlns:xlink="http://www.w3.org/1999/xlink" width="12px" height="12px" viewBox="673 454  12 12" xmlns="http://www.w3.org/2000/svg">
  <path d="M 679 454  C 682.36 454  685 456.64  685 460  C 685 463.36  682.36 466  679 466  C 675.64 466  673 463.36  673 460  C 673 456.64  675.64 454  679 454  Z " fill-rule="nonzero" fill="#ffffff" stroke="none" />
  <path d="M 679 454.5  C 682.08 454.5  684.5 456.92  684.5 460  C 684.5 463.08  682.08 465.5  679 465.5  C 675.92 465.5  673.5 463.08  673.5 460  C 673.5 456.92  675.92 454.5  679 454.5  Z " stroke-width="1" stroke="#797979" fill="none" />
  <path d="M 679 463  C 677.32 463  676 461.68  676 460  C 676 458.32  677.32 457  679 457  C 680.68 457  682 458.32  682 460  C 682 461.68  680.68 463  679 463  " fill-rule="nonzero" fill="#797979" stroke="none" />
</svg>