<?xml version="1.0" encoding="utf-8"?>
<svg version="1.1" xmlns:xlink="http://www.w3.org/1999/xlink" width="12px" height="12px" viewBox="1332 378  12 12" xmlns="http://www.w3.org/2000/svg">
  <path d="M 1338 378  C 1341.36 378  1344 380.64  1344 384  C 1344 387.36  1341.36 390  1338 390  C 1334.64 390  1332 387.36  1332 384  C 1332 380.64  1334.64 378  1338 378  Z " fill-rule="nonzero" fill="#ffffff" stroke="none" />
  <path d="M 1338 378.5  C 1341.08 378.5  1343.5 380.92  1343.5 384  C 1343.5 387.08  1341.08 389.5  1338 389.5  C 1334.92 389.5  1332.5 387.08  1332.5 384  C 1332.5 380.92  1334.92 378.5  1338 378.5  Z " stroke-width="1" stroke="#797979" fill="none" />
  <path d="M 1338 387  C 1336.32 387  1335 385.68  1335 384  C 1335 382.32  1336.32 381  1338 381  C 1339.68 381  1341 382.32  1341 384  C 1341 385.68  1339.68 387  1338 387  " fill-rule="nonzero" fill="#797979" stroke="none" />
</svg>