<?xml version="1.0" encoding="utf-8"?>
<svg version="1.1" xmlns:xlink="http://www.w3.org/1999/xlink" width="12px" height="12px" viewBox="1250 416  12 12" xmlns="http://www.w3.org/2000/svg">
  <path d="M 1256 416  C 1259.36 416  1262 418.64  1262 422  C 1262 425.36  1259.36 428  1256 428  C 1252.64 428  1250 425.36  1250 422  C 1250 418.64  1252.64 416  1256 416  Z " fill-rule="nonzero" fill="#ffffff" stroke="none" />
  <path d="M 1256 416.5  C 1259.08 416.5  1261.5 418.92  1261.5 422  C 1261.5 425.08  1259.08 427.5  1256 427.5  C 1252.92 427.5  1250.5 425.08  1250.5 422  C 1250.5 418.92  1252.92 416.5  1256 416.5  Z " stroke-width="1" stroke="#797979" fill="none" />
  <path d="M 1256 425  C 1254.32 425  1253 423.68  1253 422  C 1253 420.32  1254.32 419  1256 419  C 1257.68 419  1259 420.32  1259 422  C 1259 423.68  1257.68 425  1256 425  " fill-rule="nonzero" fill="#797979" stroke="none" />
</svg>