<?xml version="1.0" encoding="utf-8"?>
<svg version="1.1" xmlns:xlink="http://www.w3.org/1999/xlink" width="217px" height="102px" xmlns="http://www.w3.org/2000/svg">
  <g transform="matrix(1 0 0 1 -485 -864 )">
    <path d="M 485 864  L 702 864  L 702 966  L 485 966  L 485 864  " fill-rule="nonzero" fill="#cccccc" stroke="none" />
    <path d="M 492 871  L 695 871  L 695 959  L 492 959  L 492 871  " fill-rule="nonzero" fill="#ffffff" stroke="none" />
    <path d="M 605.49 894.6  C 601.206 894.6  597.84 891.234  597.84 886.95  C 597.84 882.666  601.206 879.3  605.49 879.3  C 609.774 879.3  613.14 882.666  613.14 886.95  C 613.14 891.234  609.774 894.6  605.49 894.6  " fill-rule="nonzero" fill="#cccccc" stroke="none" />
    <path d="M 495 957  L 495 911.35  L 544.5 890.6  L 613.8 933.591705069124  L 653.4 903.05  L 693 933.591705069124  L 693 957  L 495 957  " fill-rule="nonzero" fill="#169bd5" stroke="none" />
  </g>
</svg>