<?xml version="1.0" encoding="utf-8"?>
<svg version="1.1" xmlns:xlink="http://www.w3.org/1999/xlink" width="25px" height="25px" viewBox="534 710  25 25" xmlns="http://www.w3.org/2000/svg">
  <path d="M 546.5 710  C 553.5 710  559 715.5  559 722.5  C 559 729.5  553.5 735  546.5 735  C 539.5 735  534 729.5  534 722.5  C 534 715.5  539.5 710  546.5 710  Z " fill-rule="nonzero" fill="#ffffff" stroke="none" />
  <path d="M 546.5 710.5  C 553.22 710.5  558.5 715.78  558.5 722.5  C 558.5 729.22  553.22 734.5  546.5 734.5  C 539.78 734.5  534.5 729.22  534.5 722.5  C 534.5 715.78  539.78 710.5  546.5 710.5  Z " stroke-width="1" stroke="#797979" fill="none" />
  <path d="M 546.5 728.75  C 543 728.75  540.25 726  540.25 722.5  C 540.25 719  543 716.25  546.5 716.25  C 550 716.25  552.75 719  552.75 722.5  C 552.75 726  550 728.75  546.5 728.75  " fill-rule="nonzero" fill="#797979" stroke="none" />
</svg>