<?xml version="1.0" encoding="utf-8"?>
<svg version="1.1" xmlns:xlink="http://www.w3.org/1999/xlink" width="12px" height="12px" viewBox="555 394  12 12" xmlns="http://www.w3.org/2000/svg">
  <path d="M 561 394  C 564.36 394  567 396.64  567 400  C 567 403.36  564.36 406  561 406  C 557.64 406  555 403.36  555 400  C 555 396.64  557.64 394  561 394  Z " fill-rule="nonzero" fill="#ffffff" stroke="none" />
  <path d="M 561 394.5  C 564.08 394.5  566.5 396.92  566.5 400  C 566.5 403.08  564.08 405.5  561 405.5  C 557.92 405.5  555.5 403.08  555.5 400  C 555.5 396.92  557.92 394.5  561 394.5  Z " stroke-width="1" stroke="#797979" fill="none" />
  <path d="M 561 403  C 559.32 403  558 401.68  558 400  C 558 398.32  559.32 397  561 397  C 562.68 397  564 398.32  564 400  C 564 401.68  562.68 403  561 403  " fill-rule="nonzero" fill="#797979" stroke="none" />
</svg>