<?xml version="1.0" encoding="utf-8"?>
<svg version="1.1" xmlns:xlink="http://www.w3.org/1999/xlink" width="12px" height="12px" viewBox="632 336  12 12" xmlns="http://www.w3.org/2000/svg">
  <path d="M 638 336  C 641.36 336  644 338.64  644 342  C 644 345.36  641.36 348  638 348  C 634.64 348  632 345.36  632 342  C 632 338.64  634.64 336  638 336  Z " fill-rule="nonzero" fill="#ffffff" stroke="none" />
  <path d="M 638 336.5  C 641.08 336.5  643.5 338.92  643.5 342  C 643.5 345.08  641.08 347.5  638 347.5  C 634.92 347.5  632.5 345.08  632.5 342  C 632.5 338.92  634.92 336.5  638 336.5  Z " stroke-width="1" stroke="#797979" fill="none" />
  <path d="M 638 345  C 636.32 345  635 343.68  635 342  C 635 340.32  636.32 339  638 339  C 639.68 339  641 340.32  641 342  C 641 343.68  639.68 345  638 345  " fill-rule="nonzero" fill="#797979" stroke="none" />
</svg>