<?xml version="1.0" encoding="utf-8"?>
<svg version="1.1" xmlns:xlink="http://www.w3.org/1999/xlink" width="12px" height="12px" viewBox="750 336  12 12" xmlns="http://www.w3.org/2000/svg">
  <path d="M 756 336  C 759.36 336  762 338.64  762 342  C 762 345.36  759.36 348  756 348  C 752.64 348  750 345.36  750 342  C 750 338.64  752.64 336  756 336  Z " fill-rule="nonzero" fill="#ffffff" stroke="none" />
  <path d="M 756 336.5  C 759.08 336.5  761.5 338.92  761.5 342  C 761.5 345.08  759.08 347.5  756 347.5  C 752.92 347.5  750.5 345.08  750.5 342  C 750.5 338.92  752.92 336.5  756 336.5  Z " stroke-width="1" stroke="#797979" fill="none" />
  <path d="M 756 345  C 754.32 345  753 343.68  753 342  C 753 340.32  754.32 339  756 339  C 757.68 339  759 340.32  759 342  C 759 343.68  757.68 345  756 345  " fill-rule="nonzero" fill="#797979" stroke="none" />
</svg>