<?xml version="1.0" encoding="utf-8"?>
<svg version="1.1" xmlns:xlink="http://www.w3.org/1999/xlink" width="12px" height="12px" viewBox="872 336  12 12" xmlns="http://www.w3.org/2000/svg">
  <path d="M 878 336  C 881.36 336  884 338.64  884 342  C 884 345.36  881.36 348  878 348  C 874.64 348  872 345.36  872 342  C 872 338.64  874.64 336  878 336  Z " fill-rule="nonzero" fill="#ffffff" stroke="none" />
  <path d="M 878 336.5  C 881.08 336.5  883.5 338.92  883.5 342  C 883.5 345.08  881.08 347.5  878 347.5  C 874.92 347.5  872.5 345.08  872.5 342  C 872.5 338.92  874.92 336.5  878 336.5  Z " stroke-width="1" stroke="#797979" fill="none" />
  <path d="M 878 345  C 876.32 345  875 343.68  875 342  C 875 340.32  876.32 339  878 339  C 879.68 339  881 340.32  881 342  C 881 343.68  879.68 345  878 345  " fill-rule="nonzero" fill="#797979" stroke="none" />
</svg>