<?xml version="1.0" encoding="utf-8"?>
<svg version="1.1" xmlns:xlink="http://www.w3.org/1999/xlink" width="12px" height="12px" viewBox="528 255  12 12" xmlns="http://www.w3.org/2000/svg">
  <path d="M 534 255  C 537.36 255  540 257.64  540 261  C 540 264.36  537.36 267  534 267  C 530.64 267  528 264.36  528 261  C 528 257.64  530.64 255  534 255  Z " fill-rule="nonzero" fill="#f0f0f0" stroke="none" />
  <path d="M 534 255.5  C 537.08 255.5  539.5 257.92  539.5 261  C 539.5 264.08  537.08 266.5  534 266.5  C 530.92 266.5  528.5 264.08  528.5 261  C 528.5 257.92  530.92 255.5  534 255.5  Z " stroke-width="1" stroke="#797979" fill="none" />
  <path d="M 534 264  C 532.32 264  531 262.68  531 261  C 531 259.32  532.32 258  534 258  C 535.68 258  537 259.32  537 261  C 537 262.68  535.68 264  534 264  " fill-rule="nonzero" fill="#797979" stroke="none" />
</svg>