<?xml version="1.0" encoding="utf-8"?>
<svg version="1.1" xmlns:xlink="http://www.w3.org/1999/xlink" width="300px" height="170px" xmlns="http://www.w3.org/2000/svg">
  <g transform="matrix(1 0 0 1 -503 774 )">
    <path d="M 503 -774  L 803 -774  L 803 -604  L 503 -604  L 503 -774  " fill-rule="nonzero" fill="#cccccc" stroke="none" />
    <path d="M 515 -762  L 791 -762  L 791 -616  L 515 -616  L 515 -762  " fill-rule="nonzero" fill="#ffffff" stroke="none" />
    <path d="M 671.75 -723  C 664.61 -723  659 -728.61  659 -735.75  C 659 -742.89  664.61 -748.5  671.75 -748.5  C 678.89 -748.5  684.5 -742.89  684.5 -735.75  C 684.5 -728.61  678.89 -723  671.75 -723  " fill-rule="nonzero" fill="#cccccc" stroke="none" />
    <path d="M 520 -621  L 520 -696.35  L 586.75 -730.6  L 680.2 -667.58  L 733.6 -710.05  L 787 -667.58  L 787 -621  L 520 -621  " fill-rule="nonzero" fill="#169bd5" stroke="none" />
  </g>
</svg>