<?xml version="1.0" encoding="utf-8"?>
<svg version="1.1" xmlns:xlink="http://www.w3.org/1999/xlink" width="148px" height="113px" xmlns="http://www.w3.org/2000/svg">
  <g transform="matrix(1 0 0 1 -1086 -484 )">
    <path d="M 1086 484  L 1234 484  L 1234 597  L 1086 597  L 1086 484  " fill-rule="nonzero" fill="#cccccc" stroke="none" />
    <path d="M 1094 492  L 1226 492  L 1226 589  L 1094 589  L 1094 492  " fill-rule="nonzero" fill="#ffffff" stroke="none" />
    <path d="M 1171.435 517.9  C 1166.689 517.9  1162.96 514.171  1162.96 509.425  C 1162.96 504.679  1166.689 500.95  1171.435 500.95  C 1176.181 500.95  1179.91 504.679  1179.91 509.425  C 1179.91 514.171  1176.181 517.9  1171.435 517.9  " fill-rule="nonzero" fill="#cccccc" stroke="none" />
    <path d="M 1097 586  L 1097 535.95  L 1128.5 513.2  L 1172.6 544.312162162162  L 1197.8 526.85  L 1223 544.312162162162  L 1223 586  L 1097 586  " fill-rule="nonzero" fill="#169bd5" stroke="none" />
  </g>
</svg>