<?xml version="1.0" encoding="utf-8"?>
<svg version="1.1" xmlns:xlink="http://www.w3.org/1999/xlink" width="12px" height="12px" viewBox="1250 378  12 12" xmlns="http://www.w3.org/2000/svg">
  <path d="M 1256 378  C 1259.36 378  1262 380.64  1262 384  C 1262 387.36  1259.36 390  1256 390  C 1252.64 390  1250 387.36  1250 384  C 1250 380.64  1252.64 378  1256 378  Z " fill-rule="nonzero" fill="#ffffff" stroke="none" />
  <path d="M 1256 378.5  C 1259.08 378.5  1261.5 380.92  1261.5 384  C 1261.5 387.08  1259.08 389.5  1256 389.5  C 1252.92 389.5  1250.5 387.08  1250.5 384  C 1250.5 380.92  1252.92 378.5  1256 378.5  Z " stroke-width="1" stroke="#797979" fill="none" />
  <path d="M 1256 387  C 1254.32 387  1253 385.68  1253 384  C 1253 382.32  1254.32 381  1256 381  C 1257.68 381  1259 382.32  1259 384  C 1259 385.68  1257.68 387  1256 387  " fill-rule="nonzero" fill="#797979" stroke="none" />
</svg>