<?xml version="1.0" encoding="utf-8"?>
<svg version="1.1" xmlns:xlink="http://www.w3.org/1999/xlink" width="12px" height="12px" viewBox="1332 416  12 12" xmlns="http://www.w3.org/2000/svg">
  <path d="M 1338 416  C 1341.36 416  1344 418.64  1344 422  C 1344 425.36  1341.36 428  1338 428  C 1334.64 428  1332 425.36  1332 422  C 1332 418.64  1334.64 416  1338 416  Z " fill-rule="nonzero" fill="#ffffff" stroke="none" />
  <path d="M 1338 416.5  C 1341.08 416.5  1343.5 418.92  1343.5 422  C 1343.5 425.08  1341.08 427.5  1338 427.5  C 1334.92 427.5  1332.5 425.08  1332.5 422  C 1332.5 418.92  1334.92 416.5  1338 416.5  Z " stroke-width="1" stroke="#797979" fill="none" />
  <path d="M 1338 425  C 1336.32 425  1335 423.68  1335 422  C 1335 420.32  1336.32 419  1338 419  C 1339.68 419  1341 420.32  1341 422  C 1341 423.68  1339.68 425  1338 425  " fill-rule="nonzero" fill="#797979" stroke="none" />
</svg>