<?xml version="1.0" encoding="utf-8"?>
<svg version="1.1" xmlns:xlink="http://www.w3.org/1999/xlink" width="12px" height="12px" viewBox="1250 454  12 12" xmlns="http://www.w3.org/2000/svg">
  <path d="M 1256 454  C 1259.36 454  1262 456.64  1262 460  C 1262 463.36  1259.36 466  1256 466  C 1252.64 466  1250 463.36  1250 460  C 1250 456.64  1252.64 454  1256 454  Z " fill-rule="nonzero" fill="#ffffff" stroke="none" />
  <path d="M 1256 454.5  C 1259.08 454.5  1261.5 456.92  1261.5 460  C 1261.5 463.08  1259.08 465.5  1256 465.5  C 1252.92 465.5  1250.5 463.08  1250.5 460  C 1250.5 456.92  1252.92 454.5  1256 454.5  Z " stroke-width="1" stroke="#797979" fill="none" />
  <path d="M 1256 463  C 1254.32 463  1253 461.68  1253 460  C 1253 458.32  1254.32 457  1256 457  C 1257.68 457  1259 458.32  1259 460  C 1259 461.68  1257.68 463  1256 463  " fill-rule="nonzero" fill="#797979" stroke="none" />
</svg>