<?xml version="1.0" encoding="utf-8"?>
<svg version="1.1" xmlns:xlink="http://www.w3.org/1999/xlink" width="12px" height="12px" viewBox="539 606  12 12" xmlns="http://www.w3.org/2000/svg">
  <path d="M 545 606  C 548.36 606  551 608.64  551 612  C 551 615.36  548.36 618  545 618  C 541.64 618  539 615.36  539 612  C 539 608.64  541.64 606  545 606  Z " fill-rule="nonzero" fill="#ffffff" stroke="none" />
  <path d="M 545 606.5  C 548.08 606.5  550.5 608.92  550.5 612  C 550.5 615.08  548.08 617.5  545 617.5  C 541.92 617.5  539.5 615.08  539.5 612  C 539.5 608.92  541.92 606.5  545 606.5  Z " stroke-width="1" stroke="#797979" fill="none" />
  <path d="M 545 615  C 543.32 615  542 613.68  542 612  C 542 610.32  543.32 609  545 609  C 546.68 609  548 610.32  548 612  C 548 613.68  546.68 615  545 615  " fill-rule="nonzero" fill="#797979" stroke="none" />
</svg>