<?xml version="1.0" encoding="utf-8"?>
<svg version="1.1" xmlns:xlink="http://www.w3.org/1999/xlink" width="90px" height="69px" xmlns="http://www.w3.org/2000/svg">
  <g transform="matrix(1 0 0 1 -1090 -629 )">
    <path d="M 1090 629  L 1180 629  L 1180 698  L 1090 698  L 1090 629  " fill-rule="nonzero" fill="#cccccc" stroke="none" />
    <path d="M 1095 634  L 1175 634  L 1175 693  L 1095 693  L 1095 634  " fill-rule="nonzero" fill="#ffffff" stroke="none" />
    <path d="M 1141.975 649.7  C 1139.077 649.7  1136.8 647.423  1136.8 644.525  C 1136.8 641.627  1139.077 639.35  1141.975 639.35  C 1144.873 639.35  1147.15 641.627  1147.15 644.525  C 1147.15 647.423  1144.873 649.7  1141.975 649.7  " fill-rule="nonzero" fill="#cccccc" stroke="none" />
    <path d="M 1097 692  L 1097 661.2  L 1116.25 647.2  L 1143.2 666.24  L 1158.6 655.6  L 1174 666.24  L 1174 692  L 1097 692  " fill-rule="nonzero" fill="#169bd5" stroke="none" />
  </g>
</svg>